<svg xmlns="http://www.w3.org/2000/svg" width="29.25" height="29.25" viewBox="0 0 29.25 29.25">
  <path id="Icon_ionic-ios-close-circle" data-name="Icon ionic-ios-close-circle" d="M18,3.375A14.625,14.625,0,1,0,32.625,18,14.623,14.623,0,0,0,18,3.375Zm4.705,20.92L18,19.589l-4.705,4.705a1.124,1.124,0,1,1-1.589-1.589L16.411,18l-4.705-4.705a1.124,1.124,0,0,1,1.589-1.589L18,16.411l4.705-4.705a1.124,1.124,0,1,1,1.589,1.589L19.589,18l4.705,4.705a1.129,1.129,0,0,1,0,1.589A1.116,1.116,0,0,1,22.705,24.295Z" transform="translate(-3.375 -3.375)"/>
</svg>
