<svg xmlns="http://www.w3.org/2000/svg" width="45" height="36" viewBox="0 0 45 36">
  <path id="Icon_awesome-network-wired" data-name="Icon awesome-network-wired" d="M45,18.563V17.438a1.125,1.125,0,0,0-1.125-1.125H24.188V13.5H29.25a2.25,2.25,0,0,0,2.25-2.25v-9A2.25,2.25,0,0,0,29.25,0H15.75A2.25,2.25,0,0,0,13.5,2.25v9a2.25,2.25,0,0,0,2.25,2.25h5.063v2.813H1.125A1.125,1.125,0,0,0,0,17.438v1.125a1.125,1.125,0,0,0,1.125,1.125H8.438V22.5H4.5a2.25,2.25,0,0,0-2.25,2.25v9A2.25,2.25,0,0,0,4.5,36H15.75A2.25,2.25,0,0,0,18,33.75v-9a2.25,2.25,0,0,0-2.25-2.25H11.813V19.688H33.188V22.5H29.25A2.25,2.25,0,0,0,27,24.75v9A2.25,2.25,0,0,0,29.25,36H40.5a2.25,2.25,0,0,0,2.25-2.25v-9A2.25,2.25,0,0,0,40.5,22.5H36.563V19.688h7.313A1.125,1.125,0,0,0,45,18.563ZM18,9V4.5h9V9ZM13.5,31.5H6.75V27H13.5Zm24.75,0H31.5V27h6.75Z"/>
</svg>
 